<?xml version="1.0" encoding="UTF-8"?>
<!DOCTYPE svg PUBLIC "-//W3C//DTD SVG 1.1//EN" "http://www.w3.org/Graphics/SVG/1.1/DTD/svg11.dtd">
<!-- Creator: CorelDRAW X8 -->
<svg xmlns="http://www.w3.org/2000/svg" xml:space="preserve" width="50.8mm" height="37.2872mm" version="1.1" style="shape-rendering:geometricPrecision; text-rendering:geometricPrecision; image-rendering:optimizeQuality; fill-rule:evenodd; clip-rule:evenodd"
viewBox="0 0 5080 3729"
 xmlns:xlink="http://www.w3.org/1999/xlink">
 <defs>
  <style type="text/css">
   <![CDATA[
    .fil0 {fill:#2873B9;fill-rule:nonzero}
    .fil1 {fill:#363785;fill-rule:nonzero}
   ]]>
  </style>
 </defs>
 <g id="Layer_x0020_1">
  <metadata id="CorelCorpID_0Corel-Layer"/>
  <g id="_2025308997392">
   <path class="fil0" d="M2238 277c13,25 21,54 25,86 5,32 7,64 7,95 0,28 -3,71 -8,129 -5,59 -11,131 -17,218 -5,87 -11,188 -16,303 -5,115 -8,242 -8,380 0,44 2,93 6,147 3,54 11,106 23,154 11,49 27,92 48,129 21,37 50,60 85,71 88,-82 169,-171 242,-267 73,-96 139,-192 199,-290 59,-97 112,-193 160,-287 48,-93 91,-179 129,-256 37,-76 69,-145 99,-206 19,-42 38,-81 55,-119l-486 -485c-105,-105 -275,-105 -380,0l-176 176c5,7 9,14 13,22z"/>
   <path class="fil1" d="M3521 818c-35,-35 -95,-25 -116,20 -18,38 -36,76 -55,114 -40,83 -81,164 -123,244 -42,80 -85,157 -127,230 -43,73 -85,140 -126,201 -36,55 -86,125 -149,211 -63,85 -147,188 -251,307 -16,18 -33,36 -49,53 -16,16 -33,31 -52,45 -18,13 -37,24 -58,32 -21,8 -44,12 -69,12 -15,0 -28,-1 -41,-4l98 99c104,104 272,104 376,0l966 -967c103,-103 103,-269 0,-372l-224 -225z"/>
   <path class="fil1" d="M2023 1923l0 0c-12,-42 -22,-85 -30,-130 -8,-44 -13,-90 -17,-136 -4,-47 -6,-92 -6,-137 0,-6 0,-23 1,-51 0,-28 1,-65 2,-109 1,-45 2,-95 3,-151 1,-57 2,-116 3,-178 1,-61 1,-124 2,-189 0,-65 0,-127 0,-186l0 -69c0,-23 -1,-43 -3,-61 -1,-7 -2,-14 -4,-21l-538 539c-103,102 -103,268 0,370l538 538 49 -29z"/>
   <polygon class="fil0" points="1123,2697 1285,2697 1403,3027 1522,2697 1681,2697 1469,3223 1335,3223 "/>
   <polygon class="fil0" points="1731,2697 2150,2697 2150,2820 1874,2820 1874,2899 2124,2899 2124,3013 1874,3013 1874,3096 2154,3096 2154,3219 1731,3219 "/>
   <polygon class="fil0" points="2228,2697 2363,2697 2578,2973 2578,2697 2721,2697 2721,3219 2594,3219 2371,2933 2371,3219 2228,3219 "/>
   <polygon class="fil0" points="2941,2824 2784,2824 2784,2697 3242,2697 3242,2824 3085,2824 3085,3219 2941,3219 "/>
   <polygon class="fil0" points="3308,2697 3453,2697 3453,3219 3308,3219 "/>
   <polygon class="fil0" points="3549,2697 3693,2697 3693,3092 3946,3092 3946,3219 3549,3219 "/>
   <path class="fil1" d="M152 3729c-21,0 -41,-4 -60,-11 -18,-8 -34,-19 -48,-32 -13,-14 -24,-30 -32,-49 -8,-18 -12,-38 -12,-60l0 -1c0,-21 4,-41 12,-60 8,-19 18,-35 32,-49 14,-14 30,-24 49,-32 19,-8 40,-12 62,-12 15,0 29,2 41,5 13,2 24,7 34,12 10,6 19,12 28,20 8,7 15,15 22,24l-62 48c-8,-11 -17,-19 -27,-25 -10,-6 -23,-10 -37,-10 -10,0 -20,2 -28,6 -9,5 -16,10 -22,17 -6,7 -11,15 -15,25 -3,9 -5,19 -5,30l0 1c0,11 2,21 5,31 4,9 9,18 15,25 6,7 13,12 22,16 8,4 18,7 28,7 8,0 15,-1 21,-3 6,-2 12,-4 17,-7 5,-4 10,-7 15,-12 5,-4 9,-9 14,-14l61 43c-7,10 -15,19 -23,27 -8,8 -18,15 -28,21 -11,6 -22,10 -35,14 -13,3 -28,5 -44,5z"/>
   <path class="fil1" d="M465 3655c11,0 22,-2 31,-6 9,-4 17,-10 24,-17 6,-7 11,-16 15,-25 3,-9 5,-20 5,-30l0 -1c0,-11 -2,-21 -5,-30 -4,-10 -9,-18 -16,-25 -7,-8 -15,-14 -24,-18 -9,-4 -19,-6 -31,-6 -11,0 -21,2 -30,6 -9,4 -17,10 -24,17 -6,7 -11,15 -15,25 -3,9 -5,19 -5,30l0 1c0,11 2,21 5,30 4,10 9,18 16,25 6,8 14,13 23,18 10,4 20,6 31,6zm0 74c-23,0 -44,-4 -63,-12 -20,-8 -36,-19 -50,-33 -14,-13 -25,-30 -33,-48 -8,-18 -12,-38 -12,-59l0 -1c0,-21 4,-41 12,-59 8,-19 19,-35 33,-49 14,-14 31,-25 50,-33 20,-8 41,-12 63,-12 23,0 44,4 63,12 20,8 36,19 50,33 14,13 25,29 33,48 8,18 12,38 12,59l0 1c0,21 -4,41 -12,59 -8,19 -19,35 -33,49 -14,14 -31,25 -50,33 -20,8 -41,12 -63,12z"/>
   <polygon class="fil1" points="666,3429 752,3429 822,3543 892,3429 978,3429 978,3723 897,3723 897,3554 822,3669 821,3669 746,3555 746,3723 666,3723 "/>
   <path class="fil1" d="M1151 3575c14,0 26,-3 34,-10 8,-7 12,-16 12,-28l0 -1c0,-13 -4,-22 -12,-29 -8,-7 -20,-10 -35,-10l-38 0 0 78 39 0zm-121 -146l126 0c19,0 36,2 51,7 15,4 28,11 38,20 11,9 19,20 25,33 6,12 9,27 9,43l0 1c0,18 -3,33 -10,46 -6,13 -15,24 -26,33 -11,9 -25,16 -40,20 -16,5 -33,7 -51,7l-40 0 0 84 -82 0 0 -294z"/>
   <path class="fil1" d="M1462 3655c11,0 21,-2 30,-6 10,-4 17,-10 24,-17 6,-7 11,-16 15,-25 4,-9 6,-20 6,-30l0 -1c0,-11 -2,-21 -6,-30 -4,-10 -9,-18 -15,-25 -7,-8 -15,-14 -25,-18 -9,-4 -19,-6 -30,-6 -11,0 -22,2 -31,6 -9,4 -17,10 -23,17 -7,7 -12,15 -16,25 -3,9 -5,19 -5,30l0 1c0,11 2,21 6,30 3,10 8,18 15,25 7,8 15,13 24,18 9,4 19,6 31,6zm-1 74c-23,0 -44,-4 -63,-12 -19,-8 -36,-19 -50,-33 -14,-13 -25,-30 -33,-48 -8,-18 -12,-38 -12,-59l0 -1c0,-21 4,-41 12,-59 8,-19 19,-35 33,-49 15,-14 32,-25 51,-33 19,-8 40,-12 63,-12 23,0 44,4 63,12 19,8 36,19 50,33 14,13 25,29 33,48 8,18 12,38 12,59l0 1c0,21 -4,41 -12,59 -8,19 -19,35 -34,49 -14,14 -31,25 -50,33 -19,8 -40,12 -63,12z"/>
   <polygon class="fil1" points="1662,3429 1738,3429 1860,3584 1860,3429 1940,3429 1940,3723 1868,3723 1742,3562 1742,3723 1662,3723 "/>
   <polygon class="fil1" points="1992,3429 2228,3429 2228,3498 2072,3498 2072,3543 2213,3543 2213,3607 2072,3607 2072,3654 2230,3654 2230,3723 1992,3723 "/>
   <polygon class="fil1" points="2272,3429 2348,3429 2469,3584 2469,3429 2550,3429 2550,3723 2478,3723 2352,3562 2352,3723 2272,3723 "/>
   <polygon class="fil1" points="2674,3500 2585,3500 2585,3429 2843,3429 2843,3500 2755,3500 2755,3723 2674,3723 "/>
   <path class="fil1" d="M2995 3728c-27,0 -52,-4 -75,-12 -24,-8 -45,-21 -63,-37l45 -54c29,23 61,35 95,35 11,0 20,-2 25,-5 6,-4 9,-9 9,-15l0 -1c0,-3 -1,-6 -2,-8 -1,-3 -4,-5 -8,-7 -4,-2 -9,-5 -15,-7 -6,-2 -14,-4 -24,-6 -16,-4 -31,-8 -44,-12 -14,-4 -25,-10 -35,-17 -10,-7 -18,-15 -24,-25 -6,-11 -8,-23 -8,-38l0 -1c0,-14 2,-26 7,-38 6,-11 13,-21 23,-30 10,-8 22,-15 36,-19 14,-5 30,-7 47,-7 26,0 48,3 68,10 20,6 37,16 53,29l-40 58c-14,-10 -28,-17 -42,-22 -14,-5 -27,-7 -41,-7 -9,0 -17,2 -22,5 -5,4 -7,8 -7,14l0 1c0,3 1,6 2,8 2,3 4,5 8,7 4,3 9,5 16,7 6,2 15,4 25,6 17,4 32,8 45,13 14,5 26,11 35,18 10,7 17,15 22,25 5,10 7,22 7,36l0 0c0,16 -2,29 -8,41 -6,11 -14,21 -24,30 -11,8 -23,14 -38,19 -14,4 -31,6 -48,6z"/>
   <path class="fil1" d="M3389 3575c15,0 26,-3 35,-10 8,-7 12,-16 12,-28l0 -1c0,-13 -4,-22 -12,-29 -9,-7 -20,-10 -35,-10l-38 0 0 78 38 0zm-120 -146l126 0c19,0 36,2 51,7 15,4 28,11 38,20 11,9 19,20 25,33 6,12 9,27 9,43l0 1c0,18 -4,33 -10,46 -6,13 -15,24 -26,33 -11,9 -25,16 -40,20 -16,5 -33,7 -51,7l-40 0 0 84 -82 0 0 -294z"/>
   <polygon class="fil1" points="3528,3429 3620,3429 3686,3615 3753,3429 3843,3429 3723,3725 3648,3725 "/>
   <polygon class="fil1" points="3943,3500 3855,3500 3855,3429 4113,3429 4113,3500 4025,3500 4025,3723 3943,3723 "/>
   <polygon class="fil1" points="4265,3429 4346,3429 4346,3652 4489,3652 4489,3723 4265,3723 "/>
   <polygon class="fil1" points="4595,3500 4507,3500 4507,3429 4765,3429 4765,3500 4677,3500 4677,3723 4595,3723 "/>
   <path class="fil1" d="M4916 3651c24,0 44,-7 59,-20 14,-13 22,-31 22,-55l0 0c0,-24 -8,-42 -22,-55 -15,-13 -35,-20 -59,-20l-34 0 0 150 34 0zm-115 -222l113 0c26,0 50,3 70,11 21,7 38,17 53,30 14,13 25,28 32,46 7,18 11,37 11,58l0 1c0,21 -4,41 -11,59 -8,18 -19,34 -33,47 -14,13 -32,23 -53,31 -21,7 -44,11 -71,11l-111 0 0 -294z"/>
  </g>
 </g>
</svg>
